<?xml version="1.0" encoding="utf-8"?>
<!-- Generator: Adobe Illustrator 23.0.2, SVG Export Plug-In . SVG Version: 6.00 Build 0)  -->
<svg version="1.1" id="레이어_1" xmlns="http://www.w3.org/2000/svg" xmlns:xlink="http://www.w3.org/1999/xlink" x="0px"
	 y="0px" viewBox="0 0 36 36" style="enable-background:new 0 0 36 36;" xml:space="preserve">
<style type="text/css">
	.st0{fill-rule:evenodd;clip-rule:evenodd;fill:#333333;}
</style>
<path id="qr-code-2" class="st0" d="M30,18v-1.5h-1.5V18H30z M30,30v-1.5h-1.5V30H30z M27,24v1.5h1.5V27H30v-4.5h-1.5V24H27z M12,21
	h1.5v-1.5H12V21z M25.5,25.5H24V27h-1.5v-1.5H21V24h1.5v-1.5h-3V21H18v3h-1.5v1.5H15V30h1.5v-1.5H18V27h3v3h1.5v-1.5H24V30h3v-1.5
	h1.5V27h-3V25.5z M25.5,24v-1.5H24V24H25.5z M7.5,28.5H12V24H7.5V28.5z M6,22.5h7.5V30H6V22.5z M9,27h1.5v-1.5H9V27z M25.5,15v1.5
	H24V15h-3v1.5h-1.5V15H15v-1.5h-1.5V15H12v1.5h1.5v3H15V18h1.5v3H18v-3h4.5v1.5h-3V21h3v1.5H24V18h1.5v1.5H27v3h1.5V21H30v-1.5h-1.5
	V18H27v-1.5h1.5V15H25.5z M12,7.5H7.5V12H12V7.5z M13.5,6v7.5H6V6H13.5z M10.5,9H9v1.5h1.5V9z M25.5,10.5H27V9h-1.5V10.5z M21,13.5
	V12h-1.5v1.5H21z M21,6h-1.5v4.5H21V6z M15,21v3h1.5v-3H15z M7.5,19.5H9V21h1.5v-4.5H9V18H6v3h1.5V19.5z M7.5,15H6v1.5h3V15H7.5z
	 M28.5,12V7.5H24V12H28.5z M30,6v9h-1.5v-1.5h-6V6H30z M18,7.5V6h-3v1.5h1.5V9H18V7.5z M19.5,30v-1.5H18V30H19.5z M16.5,12H15V9h1.5
	v1.5h3V12H18v1.5h-1.5V12z M28.5,0h-21C3.4,0,0,3.4,0,7.5l0,0v21C0,32.6,3.4,36,7.5,36l0,0h21c4.1,0,7.5-3.4,7.5-7.5l0,0v-21
	C36,3.4,32.6,0,28.5,0L28.5,0z M28.5,3C31,3,33,5,33,7.5v21c0,2.5-2,4.5-4.5,4.5h-21C5,33,3,31,3,28.5v-21C3,5,5,3,7.5,3H28.5z"/>
</svg>
